<svg xmlns="http://www.w3.org/2000/svg" xmlns:xlink="http://www.w3.org/1999/xlink" contentStyleType="text/css" height="608px" preserveAspectRatio="none" style="width:838px;height:608px;background:#FFFFFF;" version="1.1" viewBox="0 0 838 608" width="838px" zoomAndPan="magnify"><defs/><g><rect fill="none" height="137.6641" style="stroke:#000000;stroke-width:1.5;" width="292" x="10" y="373.4922"/><rect fill="none" height="77.3984" style="stroke:#000000;stroke-width:1.5;" width="272" x="20" y="426.7578"/><line style="stroke:#181818;stroke-width:0.5;stroke-dasharray:5.0,5.0;" x1="49" x2="49" y1="81.2969" y2="528.1563"/><line style="stroke:#181818;stroke-width:0.5;stroke-dasharray:5.0,5.0;" x1="256" x2="256" y1="81.2969" y2="528.1563"/><line style="stroke:#181818;stroke-width:0.5;stroke-dasharray:5.0,5.0;" x1="398.5" x2="398.5" y1="81.2969" y2="528.1563"/><line style="stroke:#181818;stroke-width:0.5;stroke-dasharray:5.0,5.0;" x1="680" x2="680" y1="81.2969" y2="528.1563"/><text fill="#000000" font-family="sans-serif" font-size="14" lengthAdjust="spacing" textLength="32" x="30" y="77.9951">User</text><ellipse cx="49" cy="13.5" fill="#E2E2F0" rx="8" ry="8" style="stroke:#181818;stroke-width:0.5;"/><path d="M49,21.5 L49,48.5 M36,29.5 L62,29.5 M49,48.5 L36,63.5 M49,48.5 L62,63.5 " fill="none" style="stroke:#181818;stroke-width:0.5;"/><text fill="#000000" font-family="sans-serif" font-size="14" lengthAdjust="spacing" textLength="32" x="30" y="540.1514">User</text><ellipse cx="49" cy="551.9531" fill="#E2E2F0" rx="8" ry="8" style="stroke:#181818;stroke-width:0.5;"/><path d="M49,559.9531 L49,586.9531 M36,567.9531 L62,567.9531 M49,586.9531 L36,601.9531 M49,586.9531 L62,601.9531 " fill="none" style="stroke:#181818;stroke-width:0.5;"/><rect fill="#E2E2F0" height="30.2969" rx="2.5" ry="2.5" style="stroke:#181818;stroke-width:0.5;" width="52" x="230" y="50"/><text fill="#000000" font-family="sans-serif" font-size="14" lengthAdjust="spacing" textLength="38" x="237" y="69.9951">MinIO</text><rect fill="#E2E2F0" height="30.2969" rx="2.5" ry="2.5" style="stroke:#181818;stroke-width:0.5;" width="52" x="230" y="527.1563"/><text fill="#000000" font-family="sans-serif" font-size="14" lengthAdjust="spacing" textLength="38" x="237" y="547.1514">MinIO</text><rect fill="#E2E2F0" height="30.2969" rx="2.5" ry="2.5" style="stroke:#181818;stroke-width:0.5;" width="81" x="358.5" y="50"/><text fill="#000000" font-family="sans-serif" font-size="14" lengthAdjust="spacing" textLength="67" x="365.5" y="69.9951">RabbitMQ</text><rect fill="#E2E2F0" height="30.2969" rx="2.5" ry="2.5" style="stroke:#181818;stroke-width:0.5;" width="81" x="358.5" y="527.1563"/><text fill="#000000" font-family="sans-serif" font-size="14" lengthAdjust="spacing" textLength="67" x="365.5" y="547.1514">RabbitMQ</text><rect fill="#E2E2F0" height="30.2969" rx="2.5" ry="2.5" style="stroke:#181818;stroke-width:0.5;" width="44" x="658" y="50"/><text fill="#000000" font-family="sans-serif" font-size="14" lengthAdjust="spacing" textLength="30" x="665" y="69.9951">SQC</text><rect fill="#E2E2F0" height="30.2969" rx="2.5" ry="2.5" style="stroke:#181818;stroke-width:0.5;" width="44" x="658" y="527.1563"/><text fill="#000000" font-family="sans-serif" font-size="14" lengthAdjust="spacing" textLength="30" x="665" y="547.1514">SQC</text><polygon fill="#181818" points="244,108.4297,254,112.4297,244,116.4297,248,112.4297" style="stroke:#181818;stroke-width:1.0;"/><line style="stroke:#181818;stroke-width:1.0;" x1="49" x2="250" y1="112.4297" y2="112.4297"/><text fill="#000000" font-family="sans-serif" font-size="13" lengthAdjust="spacing" textLength="137" x="56" y="107.3638">Upload atomic model</text><polygon fill="#181818" points="60,137.5625,50,141.5625,60,145.5625,56,141.5625" style="stroke:#181818;stroke-width:1.0;"/><line style="stroke:#181818;stroke-width:1.0;stroke-dasharray:2.0,2.0;" x1="54" x2="255" y1="141.5625" y2="141.5625"/><text fill="#000000" font-family="sans-serif" font-size="13" lengthAdjust="spacing" textLength="183" x="66" y="136.4966">Return ID of pending request</text><polygon fill="#181818" points="387,166.6953,397,170.6953,387,174.6953,391,170.6953" style="stroke:#181818;stroke-width:1.0;"/><line style="stroke:#181818;stroke-width:1.0;" x1="256" x2="393" y1="170.6953" y2="170.6953"/><text fill="#000000" font-family="sans-serif" font-size="13" lengthAdjust="spacing" textLength="119" x="263" y="165.6294">Publish notification</text><polygon fill="#181818" points="668,195.8281,678,199.8281,668,203.8281,672,199.8281" style="stroke:#181818;stroke-width:1.0;"/><line style="stroke:#181818;stroke-width:1.0;" x1="399" x2="674" y1="199.8281" y2="199.8281"/><text fill="#000000" font-family="sans-serif" font-size="13" lengthAdjust="spacing" textLength="257" x="406" y="194.7622">Consume validation request from queue</text><polygon fill="#181818" points="410,224.9609,400,228.9609,410,232.9609,406,228.9609" style="stroke:#181818;stroke-width:1.0;"/><line style="stroke:#181818;stroke-width:1.0;stroke-dasharray:2.0,2.0;" x1="404" x2="679" y1="228.9609" y2="228.9609"/><text fill="#000000" font-family="sans-serif" font-size="13" lengthAdjust="spacing" textLength="160" x="416" y="223.895">Return validation request</text><polygon fill="#181818" points="267,254.0938,257,258.0938,267,262.0938,263,258.0938" style="stroke:#181818;stroke-width:1.0;"/><line style="stroke:#181818;stroke-width:1.0;" x1="261" x2="679" y1="258.0938" y2="258.0938"/><text fill="#000000" font-family="sans-serif" font-size="13" lengthAdjust="spacing" textLength="127" x="273" y="253.0278">Fetch atomic model</text><polygon fill="#181818" points="668,283.2266,678,287.2266,668,291.2266,672,287.2266" style="stroke:#181818;stroke-width:1.0;"/><line style="stroke:#181818;stroke-width:1.0;stroke-dasharray:2.0,2.0;" x1="256" x2="674" y1="287.2266" y2="287.2266"/><text fill="#000000" font-family="sans-serif" font-size="13" lengthAdjust="spacing" textLength="134" x="263" y="282.1606">Return atomic model</text><line style="stroke:#181818;stroke-width:1.0;" x1="680" x2="722" y1="316.3594" y2="316.3594"/><line style="stroke:#181818;stroke-width:1.0;" x1="722" x2="722" y1="316.3594" y2="329.3594"/><line style="stroke:#181818;stroke-width:1.0;" x1="681" x2="722" y1="329.3594" y2="329.3594"/><polygon fill="#181818" points="691,325.3594,681,329.3594,691,333.3594,687,329.3594" style="stroke:#181818;stroke-width:1.0;"/><text fill="#000000" font-family="sans-serif" font-size="13" lengthAdjust="spacing" textLength="144" x="687" y="311.2935">Validate atomic model</text><polygon fill="#181818" points="267,354.4922,257,358.4922,267,362.4922,263,358.4922" style="stroke:#181818;stroke-width:1.0;"/><line style="stroke:#181818;stroke-width:1.0;" x1="261" x2="679" y1="358.4922" y2="358.4922"/><text fill="#000000" font-family="sans-serif" font-size="13" lengthAdjust="spacing" textLength="147" x="273" y="353.4263">Store validation results</text><path d="M10,373.4922 L74,373.4922 L74,380.625 L64,390.625 L10,390.625 L10,373.4922 " fill="#EEEEEE" style="stroke:#000000;stroke-width:1.5;"/><rect fill="none" height="137.6641" style="stroke:#000000;stroke-width:1.5;" width="292" x="10" y="373.4922"/><text fill="#000000" font-family="sans-serif" font-size="13" font-weight="bold" lengthAdjust="spacing" textLength="19" x="25" y="386.5591">alt</text><text fill="#000000" font-family="sans-serif" font-size="11" font-weight="bold" lengthAdjust="spacing" textLength="189" x="89" y="385.7026">[Get results using request ID]</text><polygon fill="#181818" points="244,407.7578,254,411.7578,244,415.7578,248,411.7578" style="stroke:#181818;stroke-width:1.0;"/><line style="stroke:#181818;stroke-width:1.0;" x1="49" x2="250" y1="411.7578" y2="411.7578"/><text fill="#000000" font-family="sans-serif" font-size="13" lengthAdjust="spacing" textLength="178" x="56" y="406.6919">Get results using request ID</text><path d="M20,426.7578 L84,426.7578 L84,433.8906 L74,443.8906 L20,443.8906 L20,426.7578 " fill="#EEEEEE" style="stroke:#000000;stroke-width:1.5;"/><rect fill="none" height="77.3984" style="stroke:#000000;stroke-width:1.5;" width="272" x="20" y="426.7578"/><text fill="#000000" font-family="sans-serif" font-size="13" font-weight="bold" lengthAdjust="spacing" textLength="19" x="35" y="439.8247">alt</text><polygon fill="#181818" points="60,461.0234,50,465.0234,60,469.0234,56,465.0234" style="stroke:#181818;stroke-width:1.0;"/><line style="stroke:#181818;stroke-width:1.0;stroke-dasharray:2.0,2.0;" x1="54" x2="255" y1="465.0234" y2="465.0234"/><text fill="#000000" font-family="sans-serif" font-size="13" lengthAdjust="spacing" textLength="154" x="66" y="459.9575">Return validation results</text><line style="stroke:#000000;stroke-width:1.0;stroke-dasharray:2.0,2.0;" x1="20" x2="292" y1="474.0234" y2="474.0234"/><polygon fill="#181818" points="60,492.1563,50,496.1563,60,500.1563,56,496.1563" style="stroke:#181818;stroke-width:1.0;"/><line style="stroke:#181818;stroke-width:1.0;stroke-dasharray:2.0,2.0;" x1="54" x2="255" y1="496.1563" y2="496.1563"/><text fill="#000000" font-family="sans-serif" font-size="13" lengthAdjust="spacing" textLength="127" x="66" y="491.0903">Return NOT_FOUND</text><!--SRC=[XP5BRi8m48RtFiL_0IwG1Hig40j8UQJRoaacnP9ZWptk-MixIGiKX2K_vFdcdvTis3fKdfmGwSHiZeqowx90TTPMjf1iUzMWjorfaKsOHIZ11VR4mHcits0xdCcqodp1qIMGvmcUOo_hMl5cL-0zr5hv4unbrQb6ih96JEQ47dQB0WjhVEW9trAhDZEJ9ZfdUyHd817HdCcV-fZDVxU1_QriIToSdXMMCnYLRf1H8zi_XX3qa1YZ769dxshmGRCNGch6YdZwGF1NROlD58ZhRXel-IYQxxIUZEb1BeacxUcLwxOyVYxBQZl4YeCMSVy0]--></g></svg>