<?xml version="1.0" encoding="UTF-8" standalone="no"?>
<svg
   preserveAspectRatio="xMidYMid"
   version="1.1"
   viewBox="205.74 66.36 120.65 91.022"
   id="svg31"
   sodipodi:docname="DAMP_chemical_structure.svg"
   inkscape:version="1.3.2 (091e20ef0f, 2023-11-25, custom)"
   xmlns:inkscape="http://www.inkscape.org/namespaces/inkscape"
   xmlns:sodipodi="http://sodipodi.sourceforge.net/DTD/sodipodi-0.dtd"
   xmlns="http://www.w3.org/2000/svg"
   xmlns:svg="http://www.w3.org/2000/svg"
   xmlns:rdf="http://www.w3.org/1999/02/22-rdf-syntax-ns#"
   xmlns:cc="http://creativecommons.org/ns#"
   xmlns:dc="http://purl.org/dc/elements/1.1/">
  <defs
     id="defs31" />
  <sodipodi:namedview
     id="namedview31"
     pagecolor="#505050"
     bordercolor="#eeeeee"
     borderopacity="1"
     inkscape:showpageshadow="0"
     inkscape:pageopacity="0"
     inkscape:pagecheckerboard="0"
     inkscape:deskcolor="#505050"
     inkscape:zoom="8"
     inkscape:cx="31.1875"
     inkscape:cy="35.1875"
     inkscape:window-width="2560"
     inkscape:window-height="1417"
     inkscape:window-x="0"
     inkscape:window-y="0"
     inkscape:window-maximized="0"
     inkscape:current-layer="g30" />
  <metadata
     id="metadata1">
    <rdf:RDF>
      <cc:Work
         rdf:about="">
        <dc:format>image/svg+xml</dc:format>
        <dc:type
           rdf:resource="http://purl.org/dc/dcmitype/StillImage" />
        <dc:title />
      </cc:Work>
    </rdf:RDF>
  </metadata>
  <clipPath
     id="a">
    <rect
       x=".3"
       y=".3"
       width="539.4"
       height="719.15"
       id="rect1" />
  </clipPath>
  <g
     transform="translate(.52 -.0276)"
     clip-path="url(#a)"
     id="g30">
    <path
       d="m266.3 120.21q0-1.604 0.86-2.51 0.863-0.91 2.225-0.91 0.892 0 1.608 0.428 0.717 0.426 1.09 1.19 0.378 0.76 0.378 1.728 0 0.98-0.39 1.753-0.39 0.77-1.12 1.17-0.72 0.39-1.56 0.39-0.91 0-1.62-0.44-0.717-0.44-1.086-1.2-0.37-0.76-0.37-1.61zm0.88 0.013q0 1.165 0.623 1.837 0.628 0.668 1.573 0.668 0.963 0 1.582-0.676 0.624-0.677 0.624-1.92 0-0.787-0.268-1.372-0.263-0.59-0.778-0.91-0.51-0.325-1.147-0.325-0.91 0-1.56 0.624-0.65 0.62-0.65 2.07z"
       id="path1" />
    <path
       d="m255.39 127.14-0.46-0.11 0.3-0.48 9.61-4.8 0.14 0.27 0.13 0.27zm18.3-4.8 0.13-0.27 0.14-0.27 9.46 4.74 0.3 0.49-0.46 0.11z"
       fill-rule="evenodd"
       shape-rendering="geometricPrecision"
       stroke-width="0"
       id="path2" />
    <path
       d="m266.25 156.3v-6.442h0.852v2.645h3.35v-2.645h0.85v6.442h-0.85v-3.037h-3.35v3.037zm-7.18-3.14c0-1.069 0.287-1.906 0.86-2.51 0.575-0.607 1.317-0.91 2.225-0.91 0.595 0 1.131 0.143 1.608 0.428 0.478 0.284 0.841 0.681 1.09 1.19 0.252 0.507 0.378 1.083 0.378 1.728 0 0.653-0.13 1.238-0.39 1.753-0.26 0.513-0.633 0.903-1.12 1.17-0.48 0.26-1 0.39-1.56 0.39-0.607 0-1.147-0.147-1.62-0.44-0.478-0.293-0.84-0.693-1.086-1.2-0.247-0.507-0.37-1.043-0.37-1.61zm0.88 0.013c0 0.777 0.208 1.389 0.623 1.837 0.419 0.445 0.943 0.668 1.573 0.668 0.642 0 1.169-0.225 1.582-0.676 0.416-0.451 0.624-1.091 0.624-1.92 0-0.525-0.089-0.982-0.268-1.372-0.176-0.393-0.435-0.697-0.778-0.91-0.34-0.217-0.722-0.325-1.147-0.325-0.607 0-1.127 0.208-1.56 0.624-0.433 0.413-0.65 1.103-0.65 2.07zm21.21-38.893v-6.442h0.874l3.384 5.058v-5.058h0.817v6.442h-0.874l-3.38-5.063v5.063z"
       id="path3" />
    <path
       d="m284.02 127.1-0.3-0.07-0.3-0.49v-10.65h0.6zm-28.79-0.55-0.3 0.48-0.3 0.07v-14.3l0.6-0.34z"
       fill-rule="evenodd"
       shape-rendering="geometricPrecision"
       stroke-width="0"
       id="path4" />
    <path
       d="m239.38 105.81q0-1.604 0.86-2.51 0.863-0.91 2.225-0.91 0.892 0 1.608 0.428 0.717 0.426 1.09 1.19 0.378 0.76 0.378 1.728 0 0.98-0.39 1.753-0.39 0.77-1.12 1.17-0.72 0.39-1.56 0.39-0.91 0-1.62-0.44-0.717-0.44-1.086-1.2-0.37-0.76-0.37-1.61zm0.88 0.013q0 1.165 0.623 1.837 0.628 0.668 1.573 0.668 0.963 0 1.582-0.676 0.624-0.677 0.624-1.92 0-0.787-0.268-1.372-0.263-0.59-0.778-0.91-0.51-0.325-1.147-0.325-0.91 0-1.56 0.624-0.65 0.62-0.65 2.07z"
       id="path5"
       style="fill:#0000fa;fill-opacity:1" />
    <path
       d="m255.23 112.46-0.6 0.34-7.9-4.56 0.3-0.52z"
       fill-rule="evenodd"
       shape-rendering="geometricPrecision"
       stroke-width="0"
       id="path6" />
    <path
       d="m225.74 108.95v-6.442h2.43q0.642 0 0.98 0.06 0.475 0.08 0.796 0.304 0.32 0.22 0.514 0.62 0.198 0.4 0.198 0.88 0 0.82-0.523 1.392-0.523 0.567-1.89 0.567h-1.652v2.62zm0.853-3.38h1.665q0.827 0 1.174-0.307t0.347-0.866q0-0.404-0.21-0.69-0.2-0.29-0.54-0.382-0.22-0.057-0.8-0.057h-1.65z"
       id="path7"
       style="fill:#0000fa;fill-opacity:1" />
    <path
       d="m237.81 105.13v0.6h-5.72v-0.6z"
       fill-rule="evenodd"
       shape-rendering="geometricPrecision"
       stroke-width="0"
       id="path8"
       style="fill:#0000fa;fill-opacity:1" />
    <path
       d="m224.98 91.412q0-1.604 0.86-2.51 0.863-0.91 2.225-0.91 0.892 0 1.608 0.427 0.717 0.42 1.09 1.19 0.378 0.76 0.378 1.72 0 0.98-0.39 1.75t-1.12 1.17q-0.72 0.396-1.56 0.396-0.91 0-1.62-0.44-0.717-0.44-1.086-1.2-0.37-0.76-0.37-1.61zm0.88 0.013q0 1.165 0.623 1.837 0.628 0.668 1.573 0.668 0.963 0 1.582-0.677 0.624-0.676 0.624-1.92 0-0.787-0.268-1.37-0.263-0.59-0.778-0.91-0.51-0.326-1.147-0.326-0.91 0-1.56 0.624-0.65 0.62-0.65 2.08z"
       id="path9"
       style="fill:#0000fa;fill-opacity:1" />
    <path
       d="m228.97 101.01h0.6v-4.72h-0.6zm-2.44 0h0.6v-4.72h-0.6z"
       fill-rule="evenodd"
       shape-rendering="geometricPrecision"
       stroke-width="0"
       id="path10"
       style="fill:#0000fa;fill-opacity:1" />
    <path
       d="m224.98 120.21q0-1.604 0.86-2.51 0.863-0.91 2.225-0.91 0.892 0 1.608 0.428 0.717 0.426 1.09 1.19 0.378 0.76 0.378 1.728 0 0.98-0.39 1.753-0.39 0.77-1.12 1.17-0.72 0.39-1.56 0.39-0.91 0-1.62-0.44-0.717-0.44-1.086-1.2-0.37-0.76-0.37-1.61zm0.88 0.013q0 1.165 0.623 1.837 0.628 0.668 1.573 0.668 0.963 0 1.582-0.676 0.624-0.677 0.624-1.92 0-0.787-0.268-1.372-0.263-0.59-0.778-0.91-0.51-0.325-1.147-0.325-0.91 0-1.56 0.624-0.65 0.62-0.65 2.07z"
       id="path11"
       style="fill:#0000fa;fill-opacity:1" />
    <path
       d="m227.75 110.59h0.6v4.62h-0.6z"
       fill-rule="evenodd"
       shape-rendering="geometricPrecision"
       stroke-width="0"
       id="path12"
       style="fill:#0000fa;fill-opacity:1" />
    <path
       d="m210.58 105.81q0-1.604 0.86-2.51 0.863-0.91 2.225-0.91 0.892 0 1.608 0.428 0.717 0.426 1.09 1.19 0.378 0.76 0.378 1.728 0 0.98-0.39 1.753-0.39 0.77-1.12 1.17-0.72 0.39-1.56 0.39-0.91 0-1.62-0.44-0.717-0.44-1.086-1.2-0.37-0.76-0.37-1.61zm0.88 0.013q0 1.165 0.623 1.837 0.628 0.668 1.573 0.668 0.963 0 1.582-0.676 0.624-0.677 0.624-1.92 0-0.787-0.268-1.372-0.263-0.59-0.778-0.91-0.51-0.325-1.147-0.325-0.91 0-1.56 0.624-0.65 0.62-0.65 2.07z"
       id="path13"
       style="fill:#0000fa;fill-opacity:1" />
    <path
       d="m224.21 105.13v0.6h-5.82v-0.6z"
       fill-rule="evenodd"
       shape-rendering="geometricPrecision"
       stroke-width="0"
       id="path14"
       style="fill:#0000fa;fill-opacity:1" />
    <path
       d="m231.9 118.13h3.6m-29.28-14.63h3.6"
       stroke="#000"
       stroke-width=".48"
       id="path15"
       style="fill:#0000fa;fill-opacity:1" />
    <path
       d="m281.16 90.98v-6.442h0.874l3.384 5.058v-5.058h0.817v6.442h-0.874l-3.38-5.063v5.063z"
       id="path16"
       style="fill:#ff0000;fill-opacity:1" />
    <path
       d="m287.9 109.71-0.09-0.29-0.09-0.28 9.4-3.06 0.3 0.22-0.03 0.33z"
       fill-rule="evenodd"
       shape-rendering="geometricPrecision"
       stroke-width="0"
       id="path17"
       style="fill:#ff0000;fill-opacity:1" />
    <path
       d="m297.72 106.13-0.3 0.17-0.3-0.22v-13.96l0.3-0.22 0.3 0.17z"
       fill-rule="evenodd"
       shape-rendering="geometricPrecision"
       stroke-width="0"
       id="path18"
       style="fill:#ff0000;fill-opacity:1" />
    <path
       d="m300.01 104.8v-11.4"
       stroke="#000"
       stroke-width=".6"
       id="path19"
       style="fill:#ff0000;fill-opacity:1" />
    <path
       d="m297.39 91.57 0.03 0.33-0.3 0.22-9.39-3.05 0.09-0.29 0.09-0.28zm-17.37 0.47 0.24 0.17 0.24 0.18-4.87 6.71h-0.74z"
       fill-rule="evenodd"
       shape-rendering="geometricPrecision"
       stroke-width="0"
       id="path20"
       style="fill:#ff0000;fill-opacity:1" />
    <path
       d="m282.31 93.66-4.03 5.54"
       stroke="#000"
       stroke-width=".6"
       id="path21"
       style="fill:#ff0000;fill-opacity:1" />
    <path
       d="m274.89 99.1h0.74l5.33 7.34-0.24 0.17-0.25 0.18z"
       fill-rule="evenodd"
       shape-rendering="geometricPrecision"
       stroke-width="0"
       id="path22"
       style="fill:#ff0000;fill-opacity:1" />
    <path
       d="m307.33 117.03v-6.442h0.874l3.384 5.058v-5.058h0.817v6.442h-0.874l-3.38-5.063v5.063zm12.47-21.6v-6.442h0.874l3.384 5.058v-5.058h0.817v6.442h-0.875l-3.383-5.063v5.063z"
       id="path23"
       style="fill:#ff0000;fill-opacity:1" />
    <path
       d="m297.39 106.63 0.03-0.33 0.3-0.17 8.44 4.87-0.3 0.52zm16.55 4.88-0.3-0.52 8.42-4.86 0.6 0.34z"
       fill-rule="evenodd"
       shape-rendering="geometricPrecision"
       stroke-width="0"
       id="path24"
       style="fill:#ff0000;fill-opacity:1" />
    <path
       d="m312.58 109.11 7.56-4.37"
       stroke="#000"
       stroke-width=".6"
       id="path25"
       style="fill:#ff0000;fill-opacity:1" />
    <path
       d="m322.66 106.47-0.6-0.34v-9.03h0.6zm-4.1-17.11-0.3 0.52-8.37-4.83v-0.35l0.3-0.17z"
       fill-rule="evenodd"
       shape-rendering="geometricPrecision"
       stroke-width="0"
       id="path26"
       style="fill:#ff0000;fill-opacity:1" />
    <path
       d="m317.21 91.76-7.52-4.34"
       stroke="#000"
       stroke-width=".6"
       id="path27"
       style="fill:#ff0000;fill-opacity:1" />
    <path
       d="m309.59 84.53 0.3 0.17v0.35l-12.17 7.02-0.3-0.17-0.03-0.33z"
       fill-rule="evenodd"
       shape-rendering="geometricPrecision"
       stroke-width="0"
       id="path28"
       style="fill:#ff0000;fill-opacity:1" />
    <path
       d="m307.33 73.83v-6.442h0.874l3.384 5.058v-5.058h0.817v6.442h-0.874l-3.38-5.063v5.063zm6.53 0v-6.442h0.852v2.645h3.35v-2.645h0.85v6.442h-0.85v-3.037h-3.35v3.037zm9.19 1.47v0.57h-3.194q-6e-3 -0.214 0.07-0.412 0.12-0.326 0.388-0.643 0.27-0.316 0.778-0.73 0.788-0.647 1.065-1.023 0.277-0.38 0.277-0.715 0-0.353-0.254-0.593-0.25-0.244-0.656-0.244-0.43 0-0.686 0.257t-0.26 0.712l-0.61-0.07q0.063-0.68 0.472-1.04 0.408-0.36 1.097-0.36 0.696 0 1.1 0.38 0.406 0.386 0.406 0.956 0 0.29-0.118 0.57-0.12 0.28-0.396 0.59-0.28 0.31-0.92 0.85-0.54 0.45-0.69 0.61-0.15 0.157-0.25 0.32z"
       id="path29"
       style="fill:#ff0000;fill-opacity:1" />
    <path
       d="m310.19 84.53-0.3 0.17-0.3-0.17v-8.93h0.6z"
       fill-rule="evenodd"
       shape-rendering="geometricPrecision"
       stroke-width="0"
       id="path30"
       style="fill:#ff0000;fill-opacity:1" />
    <path
       style="fill:#0000fa;fill-opacity:1;stroke-width:0.0220971"
       d="M 1.016466,37.112057 V 36.880038 H 2.80633 4.5961941 v 0.232019 0.23202 H 2.80633 1.016466 Z"
       id="path81"
       transform="translate(205.22,66.3876)" />
    <path
       style="fill:#ff0000;fill-opacity:1;stroke-width:0.0220971"
       d="M 26.693281,51.740329 V 51.50831 h 1.789864 1.789864 v 0.232019 0.232019 h -1.789864 -1.789864 z"
       id="path82"
       transform="translate(205.22,66.3876)" />
    <path
       style="fill:#ff0000;fill-opacity:1;stroke-width:0.0883883"
       d="m 73.065324,32.75012 c -0.158943,-0.120217 -0.157524,-0.134109 0.04257,-0.416853 0.113846,-0.16087 1.006314,-1.391634 1.983262,-2.73503 l 1.77627,-2.442539 0.200133,0.150961 0.200133,0.15096 -1.956286,2.689326 c -1.075957,1.479129 -1.984495,2.697923 -2.018973,2.708431 -0.03448,0.01051 -0.136677,-0.03686 -0.227109,-0.105256 z"
       id="path83"
       transform="translate(205.22,66.3876)" />
    <path
       style="fill:#ff0000;fill-opacity:1;stroke-width:0.0883883"
       d="m 94.575532,32.703689 v -5.656855 h 0.220971 0.22097 v 5.656855 5.656854 h -0.22097 -0.220971 z"
       id="path84"
       transform="translate(205.22,66.3876)" />
    <path
       style="fill:#ff0000;fill-opacity:1;stroke-width:0.0883883"
       d="m 76.013979,44.636115 v -3.18198 l 0.37565,0.0039 0.375651,0.0039 1.679378,2.512186 c 0.923659,1.381703 1.70921,2.513549 1.74567,2.515215 0.03646,0.0017 0.06629,-1.130553 0.06629,-2.51604 v -2.519068 h 0.353554 0.353553 v 3.18198 3.181981 l -0.419844,-0.0022 -0.419845,-0.0022 -1.679379,-2.529621 -1.679378,-2.529621 -0.02345,2.531841 -0.02345,2.53184 h -0.352198 -0.352198 z"
       id="path85"
       transform="translate(205.22,66.3876)" />
    <path
       style="fill:#ff0000;fill-opacity:1;stroke-width:0.0883883"
       d="m 108.07916,23.410946 c -3.49843,-2.020169 -3.68288,-2.139283 -3.58986,-2.318343 0.0539,-0.103818 0.11069,-0.203461 0.12612,-0.221429 0.0154,-0.01797 1.69797,0.930325 3.73895,2.107321 3.63986,2.099032 3.70903,2.144067 3.61389,2.352865 -0.0533,0.11708 -0.12043,0.212039 -0.14909,0.211021 -0.0287,-10e-4 -1.71166,-0.960164 -3.74001,-2.131435 z"
       id="path86"
       transform="translate(205.22,66.3876)" />
    <path
       style="fill:#ff0000;fill-opacity:1;stroke-width:0.0883883"
       d=""
       id="path87"
       transform="translate(205.22,66.3876)" />
    <path
       style="fill:#ff0000;fill-opacity:1;stroke-width:0.0883883"
       d="m 107.39146,42.690857 c -0.0563,-0.105161 -0.0892,-0.20419 -0.0731,-0.220064 0.0494,-0.04871 7.26484,-4.216439 7.36897,-4.2564 0.0537,-0.0206 0.14175,0.05941 0.1957,0.177806 0.0965,0.211899 0.0417,0.247836 -3.50777,2.299673 -1.98322,1.146425 -3.66787,2.108209 -3.74368,2.137298 -0.087,0.03339 -0.17556,-0.01762 -0.24015,-0.138313 z"
       id="path88"
       transform="translate(205.22,66.3876)" />
    <path
       style="fill:#0000fa;fill-opacity:1;stroke-width:0.125"
       d="m 26.75,51.75 c 0,-0.07738 0.666667,-0.125 1.75,-0.125 1.083333,0 1.75,0.04762 1.75,0.125 0,0.07738 -0.666667,0.125 -1.75,0.125 -1.083333,0 -1.75,-0.04762 -1.75,-0.125 z"
       id="path90"
       transform="translate(205.22,66.3876)" />
    <path
       style="fill:#0000fa;fill-opacity:1;stroke-width:0.125"
       d="m 27.59375,51.532187 c 0.498437,-0.02373 1.314062,-0.02373 1.8125,0 0.498437,0.02373 0.09062,0.04314 -0.90625,0.04314 -0.996875,0 -1.404688,-0.01941 -0.90625,-0.04314 z"
       id="path91"
       transform="translate(205.22,66.3876)" />
    <path
       style="fill:#0000fa;fill-opacity:1;stroke-width:0.00390625"
       d="m 28.167969,51.870544 c -0.761765,-0.0066 -1.275283,-0.04229 -1.386523,-0.0965 -0.03567,-0.01738 -0.03649,-0.03006 -0.003,-0.04687 0.095,-0.04771 0.475244,-0.07996 1.114145,-0.0945 0.231045,-0.0053 0.982637,-0.0053 1.212891,-4.9e-5 0.431252,0.0098 0.722248,0.02602 0.917968,0.05112 0.213997,0.02745 0.279493,0.06522 0.171985,0.09918 -0.205155,0.06481 -0.947715,0.09689 -2.027453,0.08761 z"
       id="path92"
       transform="translate(205.22,66.3876)" />
    <path
       style="fill:#0000fa;fill-opacity:1;stroke-width:0.00390625"
       d="m 26.695312,51.740234 v -0.228515 l 0.778321,6.43e-4 c 0.520874,4.3e-4 0.720447,0.0016 0.603356,0.0036 -0.317153,0.0053 -0.626199,0.01858 -0.685387,0.02949 -0.01389,0.0026 -0.01659,0.0076 -0.0059,0.01085 0.01469,0.0045 0.131884,0.01021 0.301758,0.01469 0.240091,0.0063 1.387181,0.0063 1.626953,-8e-5 0.228522,-0.0061 0.306641,-0.01117 0.306641,-0.02008 0,-0.01285 -0.312378,-0.02845 -0.698083,-0.03487 -0.117975,-0.002 0.07282,-0.0031 0.585778,-0.0036 l 0.760742,-6.43e-4 v 0.228515 0.228516 h -1.787109 -1.78711 z m 2.400391,0.130891 c 0.673742,-0.01462 1.06995,-0.04988 1.142729,-0.101701 0.01582,-0.01127 0.01582,-0.02758 0,-0.03885 -0.0727,-0.05177 -0.466729,-0.08695 -1.138823,-0.101664 -0.225101,-0.0049 -0.975511,-0.0049 -1.199218,-2.3e-5 -0.672256,0.01479 -1.066182,0.04996 -1.138823,0.101687 -0.01756,0.0125 -0.01603,0.02822 0.004,0.04085 0.07862,0.04963 0.482937,0.08578 1.111421,0.09936 0.205906,0.0044 1.018796,0.0047 1.21875,3.38e-4 z"
       id="path93"
       transform="translate(205.22,66.3876)" />
    <path
       style="fill:#0000fa;fill-opacity:1;stroke-width:0.00390625"
       d="m 26.681523,51.742187 c 0,-0.132128 4.92e-4,-0.186181 0.0011,-0.120117 6e-4,0.06607 6e-4,0.17417 0,0.240235 -6e-4,0.06606 -0.0011,0.01201 -0.0011,-0.120118 z"
       id="path94"
       transform="translate(205.22,66.3876)" />
  </g>
  <path
     d="M255.45 127l-.3.07 7.2 12.78v8.33h.6v-8.82l15.26-.01 6.33-12.28-.3-.07-.46.11-7.86 10.24h-12.15l-7.86-10.24z"
     fill-rule="evenodd"
     shape-rendering="geometricPrecision"
     stroke-width="0"
     id="path31" />
</svg>
