<?xml version="1.0" encoding="UTF-8"?>
<svg width="179pt" version="1.1" xmlns="http://www.w3.org/2000/svg" height="131pt" viewBox="0 0 179 131" xmlns:xlink="http://www.w3.org/1999/xlink">
 <defs>
  <clipPath id="Clip0">
   <path d="M0 0 L179 0 L179 131 L0 131 L0 0 Z" transform="translate(0, 0)"/>
  </clipPath>
 </defs>
 <g id="Hintergrund">
  <g id="Gruppe1" clip-path="url(#Clip0)">
   <path style="fill:#000000; fill-rule:evenodd;stroke:none;" d="M13.6758 0 L11.5625 0 L11.5625 14.301 L2.4219 0 L0 0 L0 17.492 L2.1094 17.492 L2.1094 3.313 L11.1563 17.492 L13.6758 17.492 L13.6758 0 Z" transform="translate(34.0742, 110.958)"/>
   <path style="fill:#000000; fill-rule:nonzero;stroke:none;" d="M2.5 39.65 L0.79981 40.7 L0 0 L1.69922 1 L2.5 39.65 Z" transform="translate(2.65039, 60.5)"/>
   <path style="fill:#000000; fill-rule:nonzero;stroke:none;" d="M2.34961 32.6992 L0.64941 32.75 L0 0 L1.69921 0 L2.34961 32.6992 Z" transform="translate(8.65039, 64.4004)"/>
   <path style="fill:#000000; fill-rule:nonzero;stroke:none;" d="M25.75 13.3 L24.9502 14.8 L0 1.05 L1.70019 0 L25.75 13.3 Z" transform="translate(3.4502, 100.15)"/>
   <path style="fill:#000000; fill-rule:nonzero;stroke:none;" d="M23.3008 0 L25 0.9502 L0.9004 15.5004 L0 14.0504 L23.3008 0 Z" transform="translate(48.8496, 98.8496)"/>
   <path style="fill:#000000; fill-rule:nonzero;stroke:none;" d="M20.8506 0 L21.7002 1.4502 L0.8506 14 L0 12.55 L20.8506 0 Z" transform="translate(45.7998, 95.25)"/>
   <path style="fill:#000000; fill-rule:nonzero;stroke:none;" d="M0 1 L1.6992 0 L1.6992 40.6494 L0 39.6992 L0 1 Z" transform="translate(72.1504, 59.1504)"/>
   <path style="fill:#000000; fill-rule:nonzero;stroke:none;" d="M0 1.9502 L0 0 L34.7998 19.6504 L33.1006 20.6504 L0 1.9502 Z" transform="translate(39.0498, 39.5)"/>
   <path style="fill:#000000; fill-rule:nonzero;stroke:none;" d="M0 1.4502 L0.8496 0 L28.9492 15.7998 L28.0996 17.2998 L0 1.4502 Z" transform="translate(38.6504, 46.5)"/>
   <path style="fill:#000000; fill-rule:nonzero;stroke:none;" d="M1.69922 22 L0 21 L36.3994 0 L36.3994 1.9502 L1.69922 22 Z" transform="translate(2.65039, 39.5)"/>
   <path style="fill:#000000; fill-rule:nonzero;stroke:none;" d="M1.6 0 L2.4 1.5 L0.95 2.4502 L0 0.6504 L1.6 0 Z" transform="translate(102.2, 42.0498)"/>
   <path style="fill:#000000; fill-rule:nonzero;stroke:none;" d="M1.5996 0 L2.8496 2.3496 L1.4492 3.2998 L0 0.7002 L1.5996 0 Z" transform="translate(97.6504, 43.9502)"/>
   <path style="fill:#000000; fill-rule:nonzero;stroke:none;" d="M1.6006 0 L3.3008 3.1494 L1.9004 4.0996 L0 0.6494 L1.6006 0 Z" transform="translate(93.0996, 45.9004)"/>
   <path style="fill:#000000; fill-rule:nonzero;stroke:none;" d="M1.5508 0 L3.7002 4 L2.3008 4.9502 L0 0.7002 L1.5508 0 Z" transform="translate(88.5996, 47.7998)"/>
   <path style="fill:#000000; fill-rule:nonzero;stroke:none;" d="M1.5498 0 L4.1504 4.7998 L2.75 5.75 L0 0.6504 L1.5498 0 Z" transform="translate(84.0498, 49.75)"/>
   <path style="fill:#000000; fill-rule:nonzero;stroke:none;" d="M1.5498 0 L4.5996 5.6494 L3.2002 6.5996 L0 0.6992 L1.5498 0 Z" transform="translate(79.5, 51.6504)"/>
   <path style="fill:#000000; fill-rule:nonzero;stroke:none;" d="M1.5498 0 L5.0498 6.4502 L3.6494 7.4004 L0 0.6504 L1.5498 0 Z" transform="translate(74.9502, 53.5996)"/>
   <path style="fill:#000000; fill-rule:evenodd;stroke:none;" d="M13.676 0 L11.562 0 L11.562 14.3008 L2.422 0 L0 0 L0 17.4922 L2.109 17.4922 L2.109 3.3125 L11.156 17.4922 L13.676 17.4922 L13.676 0 Z" transform="translate(135.174, 55.1074)"/>
   <path style="fill:#000000; fill-rule:nonzero;stroke:none;" d="M22.8 15.3496 L21.8 16.75 L0 1 L0.5 0.2998 L1.5 0 L22.8 15.3496 Z" transform="translate(107.45, 40.4502)"/>
   <path style="fill:#000000; fill-rule:nonzero;stroke:none;" d="M21.2 0 L23.2 0.6494 L1 16.75 L0 15.3496 L21.2 0 Z" transform="translate(149.95, 40.4502)"/>
   <path style="fill:#000000; fill-rule:nonzero;stroke:none;" d="M0 1.70019 L1.25 0 L14 38.8994 L12 38.25 L0 1.70019 Z" transform="translate(159.15, 2.2002)"/>
   <path style="fill:#000000; fill-rule:nonzero;stroke:none;" d="M1.25 1.70019 L0 0 L40.95 0 L39.7 1.70019 L1.25 1.70019 Z" transform="translate(119.45, 2.2002)"/>
   <path style="fill:#000000; fill-rule:nonzero;stroke:none;" d="M1.4 38.25 L0.4 38.5498 L0 37 L11.9 0 L13.15 1.70019 L1.4 38.25 Z" transform="translate(107.55, 2.2002)"/>
   <path style="fill:#000000; fill-rule:evenodd;stroke:none;" d="M11.2265 9.52739 L11.2265 17.4922 L13.4609 17.4922 L13.4609 0 L11.2265 0 L11.2265 7.55859 L2.2304 7.55859 L2.2304 0 L0 0 L0 17.4922 L2.2304 17.4922 L2.2304 9.52739 L11.2265 9.52739 Z" transform="translate(71.8926, 7.45801)"/>
   <path style="fill:#000000; fill-rule:nonzero;stroke:none;" d="M0 6.0498 L4.6992 0 L23.1496 18 L23.5496 19.5498 L22.9996 20.25 L0 6.0498 Z" transform="translate(84.4004, 21.2002)"/>
   <path style="fill:#000000; fill-rule:evenodd;stroke:none;" d="M14.73 5.7104 C14.035 1.875 11.828 0 7.988 0 C5.636 0 3.742 0.746 2.445 2.1835 C0.863 3.914 0 6.4104 0 9.2384 C0 12.1174 0.886 14.5894 2.519 16.2934 C3.886 17.6834 5.613 18.3324 7.894 18.3324 C12.164 18.3324 14.562 16.0314 15.089 11.3984 L12.789 11.3984 C12.597 12.5974 12.355 13.4144 11.996 14.1094 C11.277 15.5504 9.789 16.3674 7.918 16.3674 C4.437 16.3674 2.23 13.5824 2.23 9.2144 C2.23 4.7304 4.316 1.9687 7.726 1.9687 C9.14 1.9687 10.46 2.3789 11.179 3.0742 C11.828 3.6718 12.187 4.3945 12.453 5.7104 L14.73 5.7104 Z" transform="translate(133.353, 94.5186)"/>
   <path style="fill:#000000; fill-rule:evenodd;stroke:none;" d="M11.226 9.5274 L11.226 17.4924 L13.46 17.4924 L13.46 0 L11.226 0 L11.226 7.5584 L2.23 7.5584 L2.23 0 L0 0 L0 17.4924 L2.23 17.4924 L2.23 9.5274 L11.226 9.5274 Z" transform="translate(151.52, 94.8076)"/>
   <path style="fill:#000000; fill-rule:evenodd;stroke:none;" d="M3.406 6.925 L3.605 6.925 L4.273 6.906 C6.023 6.906 6.921 7.699 6.921 9.234 C6.921 10.836 5.933 11.793 4.273 11.793 C2.543 11.793 1.695 10.925 1.586 9.07 L0 9.07 C0.07 10.097 0.25 10.765 0.558 11.343 C1.207 12.57 2.468 13.199 4.218 13.199 C6.851 13.199 8.546 11.632 8.546 9.214 C8.546 7.589 7.914 6.691 6.382 6.168 C7.574 5.679 8.168 4.797 8.168 3.515 C8.168 1.316 6.707 0 4.273 0 C1.695 0 0.324 1.406 0.269 4.129 L1.855 4.129 C1.875 3.355 1.945 2.922 2.144 2.523 C2.504 1.82 3.3 1.386 4.289 1.386 C5.699 1.386 6.546 2.199 6.546 3.57 C6.546 4.472 6.218 5.011 5.515 5.3 C5.086 5.48 4.523 5.554 3.406 5.57 L3.406 6.925 Z" transform="translate(167.433, 104.015)"/>
   <path style="fill:#000000; fill-rule:nonzero;stroke:none;" d="M1.7 17.7002 L0 17.7002 L0.15 0 L1.85 0 L1.7 17.7002 Z" transform="translate(139.05, 74.7998)"/>
  </g>
 </g>
</svg>
